<svg width="1175" height="873" viewBox="0 0 1175 873" fill="none" xmlns="http://www.w3.org/2000/svg">
<path d="M685.98 269.394C675.879 266.671 665.483 272.655 662.762 282.756C660.039 292.858 666.023 303.254 676.123 305.976C712.463 315.712 754.091 338.363 781.426 372.642C801.991 398.428 814.308 431.075 809.466 469.992C808.18 480.387 815.566 489.859 825.962 491.144C836.356 492.43 845.828 485.043 847.114 474.648C853.371 424.351 837.519 382.243 811.04 349.04C778.242 307.908 728.875 280.887 685.98 269.394Z" fill="#0E2037"/>
<path fill-rule="evenodd" clip-rule="evenodd" d="M822.401 490.365C830.493 490.758 838.04 495.672 841.408 503.633C846.092 514.706 840.911 527.478 829.837 532.162C821.657 534.353 834.585 566.521 842.885 563.009C870.993 551.117 884.145 518.694 872.256 490.586C864.693 472.705 848.819 460.88 831.032 457.701L822.401 490.365Z" fill="#0E2037"/>
<path d="M818.082 429.371C841.515 423.092 865.85 437.141 872.127 460.575C878.407 484.008 864.358 508.341 840.924 514.62C817.491 520.9 793.156 506.851 786.879 483.416C780.599 459.983 794.648 435.648 818.082 429.371Z" fill="#0E2037"/>
<path fill-rule="evenodd" clip-rule="evenodd" d="M820.725 439.238C802.634 444.086 791.898 462.682 796.746 480.773C801.593 498.863 820.189 509.601 838.28 504.753C856.37 499.905 867.108 481.309 862.26 463.218C857.413 445.127 838.816 434.391 820.725 439.238Z" fill="#5BD0F2"/>
<path fill-rule="evenodd" clip-rule="evenodd" d="M803.052 450.774C796.535 458.911 793.842 469.932 796.747 480.772C801.594 498.863 820.19 509.6 838.28 504.752C841.128 503.99 843.792 502.886 846.244 501.498C846.248 501.182 846.254 500.864 846.254 500.547C846.254 475.183 827.468 454.211 803.052 450.774Z" fill="#0599D9"/>
<path fill-rule="evenodd" clip-rule="evenodd" d="M539.971 44.5609L566.974 145.338C568.175 149.822 565.49 154.474 561.006 155.674C556.522 156.877 551.87 154.19 550.667 149.706L523.666 48.9303C513.718 48.0343 504.925 41.0663 502.189 30.8569C498.686 17.7836 506.443 4.34492 519.518 0.840921C532.593 -2.66175 546.031 5.09692 549.534 18.1716C552.27 28.3809 548.138 38.8116 539.971 44.5609Z" fill="#0E2037"/>
<path fill-rule="evenodd" clip-rule="evenodd" d="M512.011 9.52638C515.587 7.14638 519.342 8.40505 520.396 12.3371C521.45 16.2691 519.403 21.3877 515.827 23.7677C512.25 26.1477 508.495 24.889 507.442 20.957C506.388 17.0264 508.434 11.9077 512.011 9.52638Z" fill="white"/>
<path fill-rule="evenodd" clip-rule="evenodd" d="M425.212 414.28C414.385 408.031 407.58 397.552 407.58 384.891V198.031C407.58 185.53 413.252 174.396 424.217 168.066L586.043 74.6363C596.857 68.3923 609.359 67.7377 620.312 74.0617L782.137 167.494C792.963 173.743 799.769 184.222 799.769 196.883L799.768 383.743C799.768 396.243 794.671 408.503 783.131 413.708L621.305 486.7C609.924 491.836 598.564 492.475 587.036 487.276L425.212 414.28Z" fill="#0E2037"/>
<path fill-rule="evenodd" clip-rule="evenodd" d="M599.43 271.015V92.4632C599.43 84.7205 594.808 81.3739 586.078 86.4112L429.326 176.913C421.802 181.257 417.798 188.845 417.797 198.031V363.755C417.797 374.035 423.104 378.705 431.665 374.863L466.446 359.263L467.236 343.733L483.476 336.022V273.675C470.312 271.467 461.034 254.857 462.326 234.69C463.713 213.021 476.778 195.455 491.508 195.455C506.236 195.455 517.049 213.021 515.662 234.69C514.412 254.197 503.702 270.375 490.833 273.411V332.53L513.814 321.619L521.5 334.43L582.157 306.981C597.93 299.843 599.43 291.769 599.43 271.015Z" fill="#0599D9"/>
<path fill-rule="evenodd" clip-rule="evenodd" d="M480.562 337.406L483.476 336.022V273.675C482.481 273.507 481.509 273.257 480.562 272.931V337.406Z" fill="white"/>
<path fill-rule="evenodd" clip-rule="evenodd" d="M789.552 361.609L789.554 274.49L772.02 266.301V330.271C772.02 342.693 766.966 344.665 757.679 340.047L645.723 284.377C639.215 280.619 634.89 273.857 634.89 265.393V202.251L607.919 189.655V275.001C607.919 294.93 612.479 301.122 627.154 307.741L776.862 375.271C785.444 379.142 789.552 375.786 789.552 361.609ZM789.554 263.257V196.883C789.554 188.195 784.986 180.934 777.03 176.341L620.671 86.0659C611.618 80.8379 607.919 85.3526 607.919 93.0779V178.422L634.89 191.019V138.167C634.89 132.274 637.4 127.385 642.12 124.501C647.228 121.705 652.695 121.575 657.508 124.354L763.795 185.719C769.02 188.737 772.022 193.506 772.022 199.213V255.067L789.554 263.257Z" fill="#35C5EF"/>
<path d="M462.837 216.449C473.702 212.157 485.991 217.488 490.282 228.353C494.574 239.219 489.243 251.508 478.378 255.8C439.283 271.177 395.946 301.551 369.93 343.027C350.359 374.227 340.801 412.001 351.071 454.573C353.807 465.947 346.805 477.385 335.431 480.12C324.059 482.855 312.619 475.852 309.886 464.479C296.611 409.459 308.898 360.741 334.099 320.565C365.314 270.799 416.689 234.603 462.837 216.449Z" fill="#0E2037"/>
<path fill-rule="evenodd" clip-rule="evenodd" d="M362.102 445.837C395.806 450.891 419.034 482.312 413.981 516.016C413.434 519.656 412.579 523.173 411.449 526.545C401.394 536.593 373.865 525.568 375.994 514.617C376.439 513.288 376.777 511.905 376.991 510.471C378.982 497.193 369.833 484.816 356.555 482.825C343.279 480.835 330.902 489.984 328.911 503.26C326.921 516.537 336.07 528.916 349.347 530.907C360.125 532.335 353.619 569.367 343.801 567.895C310.097 562.84 286.869 531.42 291.923 497.715C296.977 464.011 328.398 440.783 362.102 445.837Z" fill="#0E2037"/>
<path d="M336.223 411.764C362.478 415.701 380.583 440.193 376.646 466.449C372.71 492.705 348.218 510.811 321.963 506.875C295.706 502.936 277.602 478.444 281.538 452.188C285.475 425.932 309.967 407.828 336.223 411.764Z" fill="#0E2037"/>
<path fill-rule="evenodd" clip-rule="evenodd" d="M334.707 421.868C355.391 424.969 369.645 444.25 366.543 464.934C363.442 485.618 344.161 499.872 323.477 496.77C302.793 493.669 288.539 474.388 291.641 453.704C294.742 433.02 314.023 418.766 334.707 421.868Z" fill="#35C5EF"/>
<path fill-rule="evenodd" clip-rule="evenodd" d="M351.986 489.481C344.138 495.437 333.989 498.346 323.477 496.771C302.791 493.67 288.539 474.387 291.641 453.703C291.719 453.177 291.811 452.655 291.911 452.137C295.505 451.322 299.242 450.89 303.082 450.89C326.823 450.89 346.721 467.35 351.986 489.481Z" fill="#0599D9"/>
<path fill-rule="evenodd" clip-rule="evenodd" d="M703.779 170.323C729.186 170.323 752.606 197.297 756.089 230.573C759.573 263.846 741.799 290.821 716.393 290.821C690.986 290.821 667.567 263.846 664.085 230.573C660.601 197.297 678.373 170.323 703.779 170.323ZM712.915 194.642C727.489 194.642 740.941 210.654 742.959 230.406C744.978 250.158 734.799 266.17 720.225 266.17C705.65 266.17 692.198 250.158 690.181 230.406C688.161 210.654 698.339 194.642 712.915 194.642Z" fill="#FFCB00"/>
<path fill-rule="evenodd" clip-rule="evenodd" d="M735.487 198.437C742.538 198.074 749.363 205.993 750.734 216.126C752.105 226.258 747.499 234.766 740.449 235.13C733.399 235.493 726.571 227.573 725.202 217.44C723.833 207.309 728.437 198.8 735.487 198.437Z" fill="white"/>
<mask id="mask0_2_430" style="mask-type:luminance" maskUnits="userSpaceOnUse" x="341" y="587" width="525" height="49">
<path d="M341.744 587.73H865.605V635.55H341.744V587.73Z" fill="white"/>
</mask>
<g mask="url(#mask0_2_430)">
<g opacity="0.110001">
<path fill-rule="evenodd" clip-rule="evenodd" d="M603.675 587.729C748.336 587.729 865.605 598.435 865.605 611.64C865.605 624.845 748.336 635.549 603.675 635.549C459.015 635.549 341.744 624.845 341.744 611.64C341.744 598.435 459.015 587.729 603.675 587.729Z" fill="#0E2037"/>
</g>
</g>
<path fill-rule="evenodd" clip-rule="evenodd" d="M799.831 461.216C771.722 473.104 758.572 505.531 770.462 533.639C771.172 535.319 771.803 537.038 772.806 538.514C774.5 541.002 782.94 540.882 790.124 537.751C797.818 534.4 804.138 527.706 801.308 520.592C796.866 509.422 801.804 496.747 812.879 492.064C813.036 491.996 813.195 491.932 813.355 491.868C825.579 483.202 813.207 460.163 801.467 460.558C800.919 460.77 800.375 460.986 799.831 461.216Z" fill="#0E2037"/>
<path fill-rule="evenodd" clip-rule="evenodd" d="M789.483 195.045C788.884 187.172 784.418 180.605 777.03 176.34L620.671 86.0654C611.618 80.8374 607.919 85.352 607.919 93.0774V95.784C608.978 90.2747 612.847 87.796 620.515 92.2227L778.743 183.577C783.738 186.461 787.412 190.384 789.483 195.045ZM599.43 271.016V92.464C599.43 84.72 594.807 81.3747 586.078 86.412L429.326 176.913C423.875 180.06 420.272 184.909 418.7 190.835C420.134 189.38 421.788 188.101 423.66 187.02L581.918 95.6507C590.731 90.5627 595.399 93.9427 595.399 101.76V296.676C598.924 290.872 599.43 283.085 599.43 271.016Z" fill="white"/>
<path fill-rule="evenodd" clip-rule="evenodd" d="M334.708 421.867C355.392 424.968 369.645 444.251 366.542 464.935C366.141 467.616 365.466 470.188 364.552 472.63C364.73 471.812 364.885 470.984 365.01 470.146C368.112 449.462 353.858 430.18 333.174 427.079C315.173 424.38 298.234 434.828 292.1 451.219C296.312 431.894 314.862 418.892 334.708 421.867Z" fill="white"/>
<path fill-rule="evenodd" clip-rule="evenodd" d="M820.726 439.239C808.757 442.445 800.009 451.671 796.862 462.785C800.841 453.632 808.804 446.313 819.193 443.529C837.284 438.683 855.88 449.419 860.728 467.509C862.368 473.632 862.222 479.812 860.612 485.497C863.561 478.712 864.324 470.92 862.26 463.219C857.413 445.128 838.816 434.391 820.726 439.239Z" fill="white"/>
<path fill-rule="evenodd" clip-rule="evenodd" d="M789.554 278.782V274.49L772.02 266.3V270.592L789.554 278.782ZM772.02 330.271C772.02 342.694 766.966 344.664 757.679 340.047L645.723 284.376C639.215 280.619 634.89 273.856 634.89 265.392V269.684C634.89 278.147 639.215 284.911 645.723 288.668L757.679 344.338C766.966 348.956 772.02 346.984 772.02 334.563V330.271ZM634.89 206.544V202.252L607.919 189.655V193.947L634.89 206.544Z" fill="white"/>
<path d="M6.125 711.435V683.455H126.607V711.435H83.3835V826H49.4176V711.435H6.125ZM197.862 779.854V719.091H231.828V826H199.393V806.094H198.279C195.913 812.636 191.876 817.833 186.169 821.685C180.508 825.49 173.663 827.392 165.636 827.392C158.351 827.392 151.948 825.722 146.426 822.381C140.904 819.04 136.612 814.376 133.549 808.391C130.487 802.358 128.932 795.305 128.886 787.232V719.091H162.922V780.55C162.968 786.35 164.499 790.92 167.515 794.261C170.531 797.602 174.638 799.273 179.835 799.273C183.222 799.273 186.261 798.53 188.953 797.045C191.69 795.514 193.848 793.31 195.426 790.433C197.05 787.51 197.862 783.983 197.862 779.854ZM287.527 765.028V826H253.491V719.091H285.857V738.719H287.04C289.406 732.176 293.443 727.049 299.151 723.337C304.858 719.578 311.656 717.699 319.544 717.699C327.061 717.699 333.58 719.393 339.102 722.78C344.67 726.121 348.986 730.807 352.048 736.839C355.157 742.825 356.688 749.832 356.642 757.859V826H322.607V764.541C322.653 758.602 321.145 753.962 318.082 750.621C315.066 747.28 310.867 745.609 305.484 745.609C301.911 745.609 298.756 746.398 296.018 747.976C293.327 749.507 291.239 751.711 289.754 754.588C288.316 757.465 287.573 760.945 287.527 765.028ZM427.549 868.318C417.387 868.318 408.687 866.903 401.449 864.072C394.21 861.242 388.526 857.367 384.396 852.449C380.266 847.53 377.784 841.962 376.949 835.744L409.174 833.935C409.778 836.116 410.891 838.018 412.515 839.642C414.186 841.266 416.343 842.519 418.988 843.401C421.68 844.282 424.835 844.723 428.454 844.723C434.162 844.723 438.871 843.331 442.583 840.547C446.342 837.809 448.221 833.007 448.221 826.139V807.347H447.038C445.692 810.641 443.651 813.588 440.913 816.186C438.175 818.785 434.765 820.826 430.681 822.311C426.645 823.796 422.004 824.538 416.761 824.538C408.966 824.538 401.82 822.729 395.324 819.109C388.874 815.444 383.7 809.783 379.802 802.126C375.951 794.424 374.025 784.517 374.025 772.406C374.025 759.924 376.02 749.646 380.011 741.572C384.002 733.452 389.222 727.443 395.672 723.545C402.168 719.648 409.151 717.699 416.622 717.699C422.236 717.699 427.039 718.673 431.029 720.622C435.066 722.525 438.384 724.984 440.983 728C443.581 731.016 445.553 734.148 446.899 737.396H447.873V719.091H481.77V826.418C481.77 835.466 479.496 843.099 474.949 849.317C470.401 855.535 464.044 860.244 455.877 863.446C447.711 866.694 438.268 868.318 427.549 868.318ZM428.593 799.76C432.723 799.76 436.25 798.67 439.173 796.489C442.096 794.308 444.347 791.176 445.924 787.092C447.502 783.009 448.291 778.114 448.291 772.406C448.291 766.606 447.502 761.618 445.924 757.442C444.393 753.219 442.143 749.971 439.173 747.697C436.25 745.424 432.723 744.287 428.593 744.287C424.371 744.287 420.798 745.447 417.875 747.767C414.951 750.087 412.724 753.358 411.193 757.581C409.708 761.757 408.966 766.699 408.966 772.406C408.966 778.114 409.731 783.009 411.262 787.092C412.794 791.176 414.998 794.308 417.875 796.489C420.798 798.67 424.371 799.76 428.593 799.76ZM596.805 751.734L565.553 752.57C565.228 750.342 564.347 748.37 562.908 746.653C561.47 744.89 559.591 743.521 557.271 742.547C554.997 741.526 552.352 741.016 549.336 741.016C545.392 741.016 542.028 741.804 539.244 743.382C536.506 744.96 535.16 747.094 535.207 749.786C535.16 751.874 535.996 753.683 537.712 755.214C539.476 756.746 542.608 757.975 547.109 758.903L567.711 762.801C578.383 764.843 586.318 768.23 591.515 772.963C596.758 777.696 599.403 783.96 599.45 791.756C599.403 799.087 597.222 805.467 592.907 810.896C588.638 816.325 582.791 820.548 575.367 823.564C567.943 826.534 559.451 828.018 549.893 828.018C534.627 828.018 522.585 824.886 513.769 818.622C504.999 812.312 499.988 803.866 498.735 793.287L532.353 792.452C533.095 796.349 535.021 799.319 538.13 801.361C541.239 803.402 545.206 804.423 550.032 804.423C554.394 804.423 557.943 803.611 560.681 801.987C563.419 800.363 564.811 798.205 564.857 795.514C564.811 793.101 563.744 791.176 561.656 789.737C559.567 788.252 556.296 787.092 551.842 786.257L533.188 782.707C522.469 780.759 514.488 777.162 509.245 771.919C504.002 766.629 501.403 759.901 501.45 751.734C501.403 744.589 503.306 738.487 507.157 733.429C511.008 728.325 516.484 724.427 523.583 721.736C530.683 719.045 539.058 717.699 548.71 717.699C563.187 717.699 574.602 720.738 582.954 726.817C591.306 732.849 595.923 741.155 596.805 751.734ZM676.551 719.091V744.148H609.107V719.091H676.551ZM623.236 693.477H657.272V792.382C657.272 794.47 657.596 796.164 658.246 797.463C658.942 798.716 659.94 799.621 661.239 800.178C662.538 800.688 664.093 800.943 665.902 800.943C667.202 800.943 668.57 800.827 670.009 800.595C671.494 800.317 672.607 800.085 673.35 799.899L678.5 824.469C676.876 824.933 674.579 825.513 671.61 826.209C668.686 826.905 665.183 827.346 661.1 827.531C653.119 827.902 646.275 826.974 640.567 824.747C634.906 822.473 630.568 818.947 627.551 814.168C624.582 809.388 623.143 803.379 623.236 796.141V693.477ZM742.743 828.018C731.56 828.018 721.909 825.814 713.789 821.406C705.715 816.952 699.497 810.618 695.135 802.405C690.82 794.145 688.662 784.331 688.662 772.963C688.662 761.92 690.843 752.268 695.205 744.009C699.567 735.703 705.715 729.253 713.65 724.659C721.584 720.019 730.934 717.699 741.699 717.699C749.309 717.699 756.269 718.882 762.58 721.249C768.891 723.615 774.343 727.118 778.936 731.759C783.53 736.399 787.103 742.129 789.655 748.95C792.207 755.725 793.483 763.497 793.483 772.267V780.759H700.564V760.991H761.814C761.768 757.372 760.909 754.147 759.239 751.317C757.569 748.486 755.272 746.282 752.348 744.705C749.471 743.08 746.154 742.268 742.395 742.268C738.59 742.268 735.18 743.127 732.164 744.844C729.148 746.514 726.758 748.811 724.995 751.734C723.231 754.611 722.303 757.883 722.211 761.548V781.663C722.211 786.025 723.069 789.853 724.786 793.148C726.503 796.396 728.939 798.925 732.094 800.734C735.249 802.544 739.008 803.449 743.37 803.449C746.386 803.449 749.123 803.031 751.583 802.196C754.042 801.361 756.153 800.131 757.917 798.507C759.68 796.883 761.002 794.888 761.884 792.521L793.135 793.426C791.836 800.433 788.982 806.535 784.574 811.732C780.212 816.882 774.482 820.896 767.382 823.773C760.283 826.603 752.07 828.018 742.743 828.018ZM844.902 765.028V826H810.866V719.091H843.232V738.719H844.415C846.781 732.176 850.818 727.049 856.526 723.337C862.233 719.578 869.031 717.699 876.919 717.699C884.436 717.699 890.955 719.393 896.477 722.78C902.045 726.121 906.361 730.807 909.423 736.839C912.532 742.825 914.063 749.832 914.017 757.859V826H879.982V764.541C880.028 758.602 878.52 753.962 875.457 750.621C872.441 747.28 868.242 745.609 862.859 745.609C859.286 745.609 856.131 746.398 853.393 747.976C850.702 749.507 848.614 751.711 847.129 754.588C845.691 757.465 844.948 760.945 844.902 765.028ZM965.784 797.95L965.923 757.372H970.656L1000.72 719.091H1039.28L994.599 773.938H985.62L965.784 797.95ZM935.089 826V683.455H969.125V826H935.089ZM1001.49 826L973.51 781.594L995.922 757.442L1040.81 826H1001.49ZM1051.46 826V719.091H1085.5V826H1051.46ZM1068.52 706.632C1063.74 706.632 1059.63 705.054 1056.2 701.899C1052.76 698.697 1051.05 694.846 1051.05 690.345C1051.05 685.891 1052.76 682.086 1056.2 678.93C1059.63 675.729 1063.74 674.128 1068.52 674.128C1073.34 674.128 1077.45 675.729 1080.84 678.93C1084.27 682.086 1085.99 685.891 1085.99 690.345C1085.99 694.846 1084.27 698.697 1080.84 701.899C1077.45 705.054 1073.34 706.632 1068.52 706.632ZM1167.51 719.091V744.148H1100.06V719.091H1167.51ZM1114.19 693.477H1148.23V792.382C1148.23 794.47 1148.55 796.164 1149.2 797.463C1149.9 798.716 1150.9 799.621 1152.2 800.178C1153.5 800.688 1155.05 800.943 1156.86 800.943C1158.16 800.943 1159.53 800.827 1160.97 800.595C1162.45 800.317 1163.56 800.085 1164.31 799.899L1169.46 824.469C1167.83 824.933 1165.54 825.513 1162.57 826.209C1159.64 826.905 1156.14 827.346 1152.06 827.531C1144.08 827.902 1137.23 826.974 1131.52 824.747C1125.86 822.473 1121.52 818.947 1118.51 814.168C1115.54 809.388 1114.1 803.379 1114.19 796.141V693.477Z" fill="#0E2037"/>
</svg>
