<svg width="596" height="636" viewBox="0 0 596 636" fill="none" xmlns="http://www.w3.org/2000/svg">
<path d="M404.98 269.394C394.879 266.671 384.483 272.655 381.762 282.756C379.039 292.858 385.023 303.254 395.123 305.976C431.463 315.712 473.091 338.363 500.426 372.642C520.991 398.428 533.308 431.075 528.466 469.992C527.18 480.387 534.566 489.859 544.962 491.144C555.356 492.43 564.828 485.043 566.114 474.648C572.371 424.351 556.519 382.243 530.04 349.04C497.242 307.908 447.875 280.887 404.98 269.394Z" fill="#0E2037"/>
<path fill-rule="evenodd" clip-rule="evenodd" d="M541.401 490.365C549.493 490.758 557.04 495.672 560.408 503.633C565.092 514.706 559.911 527.478 548.837 532.162C540.657 534.353 553.585 566.521 561.885 563.009C589.993 551.117 603.145 518.694 591.256 490.586C583.693 472.705 567.819 460.88 550.032 457.701L541.401 490.365Z" fill="#0E2037"/>
<path d="M537.082 429.371C560.515 423.092 584.85 437.141 591.127 460.575C597.407 484.008 583.358 508.341 559.925 514.62C536.491 520.9 512.157 506.851 505.879 483.416C499.599 459.983 513.649 435.648 537.082 429.371Z" fill="#0E2037"/>
<path fill-rule="evenodd" clip-rule="evenodd" d="M539.725 439.238C521.635 444.086 510.899 462.682 515.747 480.773C520.593 498.863 539.189 509.601 557.28 504.753C575.371 499.905 586.108 481.309 581.26 463.218C576.413 445.127 557.816 434.391 539.725 439.238Z" fill="#5BD0F2"/>
<path fill-rule="evenodd" clip-rule="evenodd" d="M522.052 450.774C515.535 458.911 512.842 469.932 515.747 480.772C520.594 498.863 539.19 509.6 557.28 504.752C560.128 503.99 562.792 502.886 565.244 501.498C565.248 501.182 565.254 500.864 565.254 500.547C565.254 475.183 546.468 454.211 522.052 450.774Z" fill="#0599D9"/>
<path fill-rule="evenodd" clip-rule="evenodd" d="M258.971 44.5609L285.974 145.338C287.175 149.822 284.49 154.474 280.006 155.674C275.522 156.877 270.87 154.19 269.667 149.706L242.666 48.9303C232.718 48.0343 223.925 41.0663 221.189 30.8569C217.686 17.7836 225.443 4.34492 238.518 0.840921C251.593 -2.66175 265.031 5.09692 268.534 18.1716C271.27 28.3809 267.138 38.8116 258.971 44.5609Z" fill="#0E2037"/>
<path fill-rule="evenodd" clip-rule="evenodd" d="M231.011 9.52638C234.587 7.14638 238.342 8.40505 239.396 12.3371C240.45 16.2691 238.403 21.3877 234.827 23.7677C231.25 26.1477 227.495 24.889 226.442 20.957C225.388 17.0264 227.434 11.9077 231.011 9.52638Z" fill="white"/>
<path fill-rule="evenodd" clip-rule="evenodd" d="M144.212 414.28C133.386 408.031 126.58 397.552 126.58 384.891V198.031C126.58 185.53 132.252 174.396 143.218 168.066L305.043 74.6363C315.858 68.3923 328.359 67.7377 339.312 74.0617L501.138 167.494C511.963 173.743 518.77 184.222 518.77 196.883L518.768 383.743C518.768 396.243 513.671 408.503 502.131 413.708L340.306 486.7C328.924 491.836 317.564 492.475 306.036 487.276L144.212 414.28Z" fill="#0E2037"/>
<path fill-rule="evenodd" clip-rule="evenodd" d="M318.43 271.015V92.4632C318.43 84.7205 313.807 81.3739 305.078 86.4112L148.326 176.913C140.802 181.257 136.798 188.845 136.797 198.031V363.755C136.797 374.035 142.103 378.705 150.665 374.863L185.446 359.263L186.235 343.733L202.475 336.022V273.675C189.311 271.467 180.034 254.857 181.326 234.69C182.713 213.021 195.778 195.455 210.507 195.455C225.235 195.455 236.049 213.021 234.662 234.69C233.411 254.197 222.702 270.375 209.833 273.411V332.53L232.814 321.619L240.499 334.43L301.157 306.981C316.93 299.843 318.43 291.769 318.43 271.015Z" fill="#0599D9"/>
<path fill-rule="evenodd" clip-rule="evenodd" d="M199.562 337.406L202.475 336.022V273.675C201.481 273.507 200.509 273.257 199.562 272.931V337.406Z" fill="white"/>
<path fill-rule="evenodd" clip-rule="evenodd" d="M508.552 361.609L508.553 274.49L491.02 266.301V330.271C491.02 342.693 485.965 344.665 476.679 340.047L364.723 284.377C358.215 280.619 353.889 273.857 353.889 265.393V202.251L326.919 189.655V275.001C326.919 294.93 331.479 301.122 346.153 307.741L495.861 375.271C504.444 379.142 508.552 375.786 508.552 361.609ZM508.553 263.257V196.883C508.553 188.195 503.985 180.934 496.029 176.341L339.671 86.0659C330.617 80.8379 326.919 85.3526 326.919 93.0779V178.422L353.889 191.019V138.167C353.889 132.274 356.4 127.385 361.12 124.501C366.228 121.705 371.695 121.575 376.508 124.354L482.795 185.719C488.02 188.737 491.021 193.506 491.021 199.213V255.067L508.553 263.257Z" fill="#35C5EF"/>
<path d="M181.837 216.449C192.702 212.157 204.991 217.488 209.282 228.353C213.574 239.219 208.243 251.508 197.378 255.8C158.283 271.177 114.946 301.551 88.9301 343.027C69.3594 374.227 59.8008 412.001 70.0714 454.573C72.8074 465.947 65.8048 477.385 54.4314 480.12C43.0594 482.855 31.6195 475.852 28.8861 464.479C15.6115 409.459 27.8981 360.741 53.0994 320.565C84.3141 270.799 135.689 234.603 181.837 216.449Z" fill="#0E2037"/>
<path fill-rule="evenodd" clip-rule="evenodd" d="M81.1023 445.837C114.806 450.891 138.034 482.312 132.981 516.016C132.434 519.656 131.58 523.173 130.449 526.545C120.394 536.593 92.8649 525.568 94.9943 514.617C95.4396 513.288 95.7769 511.905 95.9916 510.471C97.9823 497.193 88.8329 484.816 75.5556 482.825C62.2796 480.835 49.9023 489.984 47.9116 503.26C45.9209 516.537 55.0703 528.916 68.3476 530.907C79.1249 532.335 72.6196 569.367 62.8009 567.895C29.0969 562.84 5.86892 531.42 10.9236 497.715C15.9769 464.011 47.3983 440.783 81.1023 445.837Z" fill="#0E2037"/>
<path d="M55.2228 411.764C81.4775 415.701 99.5828 440.193 95.6455 466.449C91.7095 492.705 67.2175 510.811 40.9628 506.875C14.7055 502.936 -3.39849 478.444 0.53751 452.188C4.47484 425.932 28.9668 407.828 55.2228 411.764Z" fill="#0E2037"/>
<path fill-rule="evenodd" clip-rule="evenodd" d="M53.7073 421.868C74.3913 424.969 88.6446 444.25 85.5433 464.934C82.4419 485.618 63.1606 499.872 42.4766 496.77C21.7926 493.669 7.53927 474.388 10.6406 453.704C13.7419 433.02 33.0233 418.766 53.7073 421.868Z" fill="#35C5EF"/>
<path fill-rule="evenodd" clip-rule="evenodd" d="M70.9865 489.481C63.1385 495.437 52.9891 498.346 42.4771 496.771C21.7918 493.67 7.53979 474.387 10.6411 453.703C10.7198 453.177 10.8118 452.655 10.9118 452.137C14.5051 451.322 18.2425 450.89 22.0825 450.89C45.8238 450.89 65.7211 467.35 70.9865 489.481Z" fill="#0599D9"/>
<path fill-rule="evenodd" clip-rule="evenodd" d="M422.779 170.323C448.185 170.323 471.605 197.297 475.088 230.573C478.572 263.846 460.799 290.821 435.392 290.821C409.985 290.821 386.567 263.846 383.084 230.573C379.6 197.297 397.372 170.323 422.779 170.323ZM431.915 194.642C446.488 194.642 459.94 210.654 461.959 230.406C463.977 250.158 453.799 266.17 439.224 266.17C424.649 266.17 411.197 250.158 409.18 230.406C407.16 210.654 417.339 194.642 431.915 194.642Z" fill="#FFCB00"/>
<path fill-rule="evenodd" clip-rule="evenodd" d="M454.487 198.437C461.538 198.074 468.363 205.993 469.734 216.126C471.104 226.258 466.499 234.766 459.448 235.13C452.399 235.493 445.571 227.573 444.202 217.44C442.832 207.309 447.436 198.8 454.487 198.437Z" fill="white"/>
<mask id="mask0_1_121" style="mask-type:luminance" maskUnits="userSpaceOnUse" x="60" y="587" width="525" height="49">
<path d="M60.744 587.73H584.605V635.55H60.744V587.73Z" fill="white"/>
</mask>
<g mask="url(#mask0_1_121)">
<g opacity="0.110001">
<path fill-rule="evenodd" clip-rule="evenodd" d="M322.675 587.729C467.336 587.729 584.605 598.435 584.605 611.64C584.605 624.845 467.336 635.549 322.675 635.549C178.015 635.549 60.7439 624.845 60.7439 611.64C60.7439 598.435 178.015 587.729 322.675 587.729Z" fill="#0E2037"/>
</g>
</g>
<path fill-rule="evenodd" clip-rule="evenodd" d="M518.831 461.216C490.721 473.104 477.572 505.531 489.461 533.639C490.172 535.319 490.803 537.038 491.805 538.514C493.5 541.002 501.94 540.882 509.124 537.751C516.817 534.4 523.137 527.706 520.308 520.592C515.865 509.422 520.804 496.747 531.879 492.064C532.036 491.996 532.195 491.932 532.355 491.868C544.579 483.202 532.207 460.163 520.467 460.558C519.919 460.77 519.375 460.986 518.831 461.216Z" fill="#0E2037"/>
<path fill-rule="evenodd" clip-rule="evenodd" d="M508.483 195.045C507.884 187.172 503.418 180.605 496.03 176.34L339.671 86.0654C330.618 80.8374 326.919 85.352 326.919 93.0774V95.784C327.978 90.2747 331.847 87.796 339.515 92.2227L497.743 183.577C502.738 186.461 506.412 190.384 508.483 195.045ZM318.43 271.016V92.464C318.43 84.72 313.807 81.3747 305.078 86.412L148.326 176.913C142.875 180.06 139.272 184.909 137.7 190.835C139.134 189.38 140.788 188.101 142.66 187.02L300.918 95.6507C309.731 90.5627 314.399 93.9427 314.399 101.76V296.676C317.924 290.872 318.43 283.085 318.43 271.016Z" fill="white"/>
<path fill-rule="evenodd" clip-rule="evenodd" d="M53.7077 421.867C74.3917 424.968 88.6451 444.251 85.5424 464.935C85.1411 467.616 84.4664 470.188 83.5517 472.63C83.7304 471.812 83.8851 470.984 84.0104 470.146C87.1117 449.462 72.8584 430.18 52.1744 427.079C34.1731 424.38 17.2344 434.828 11.0997 451.219C15.3117 431.894 33.8624 418.892 53.7077 421.867Z" fill="white"/>
<path fill-rule="evenodd" clip-rule="evenodd" d="M539.727 439.239C527.757 442.445 519.009 451.671 515.863 462.785C519.841 453.632 527.804 446.313 538.193 443.529C556.284 438.683 574.88 449.419 579.728 467.509C581.368 473.632 581.223 479.812 579.612 485.497C582.561 478.712 583.324 470.92 581.26 463.219C576.413 445.128 557.816 434.391 539.727 439.239Z" fill="white"/>
<path fill-rule="evenodd" clip-rule="evenodd" d="M508.553 278.782V274.49L491.02 266.3V270.592L508.553 278.782ZM491.02 330.271C491.02 342.694 485.965 344.664 476.679 340.047L364.723 284.376C358.215 280.619 353.889 273.856 353.889 265.392V269.684C353.889 278.147 358.215 284.911 364.723 288.668L476.679 344.338C485.965 348.956 491.02 346.984 491.02 334.563V330.271ZM353.889 206.544V202.252L326.919 189.655V193.947L353.889 206.544Z" fill="white"/>
</svg>
